M48
; DRILL file {KiCad 8.0.6} date 2025-01-21T00:11:26-0400
; FORMAT={-:-/ absolute / inch / decimal}
; #@! TF.CreationDate,2025-01-21T00:11:26-04:00
; #@! TF.GenerationSoftware,Kicad,Pcbnew,8.0.6
; #@! TF.FileFunction,Plated,1,2,PTH
FMAT,2
INCH
; #@! TA.AperFunction,Plated,PTH,ViaDrill
T1C0.0118
; #@! TA.AperFunction,Plated,PTH,ComponentDrill
T2C0.0118
; #@! TA.AperFunction,Plated,PTH,ComponentDrill
T3C0.0236
%
G90
G05
T1
X3.8685Y-2.8681
X3.9071Y-2.8677
X3.9406Y-2.8681
X3.9728Y-2.8693
X4.024Y-3.2358
X4.037Y-2.8669
X4.0429Y-3.0898
X4.0705Y-2.8673
X4.0886Y-3.0307
X4.1079Y-2.8681
X4.1084Y-2.9594
X4.1394Y-2.8685
X4.1457Y-3.1067
X4.1476Y-3.0681
X4.1728Y-2.8689
X4.1791Y-3.1071
X4.1811Y-3.0685
X4.1898Y-3.2346
X4.202Y-2.9067
X4.2039Y-2.8697
X4.2185Y-2.9776
X4.2406Y-2.9063
X4.2425Y-2.8693
X4.248Y-3.1988
X4.2598Y-3.2346
X4.274Y-2.9067
X4.276Y-2.8697
X4.3047Y-2.9035
X4.3063Y-2.9366
X4.3071Y-2.8685
X4.3386Y-3.1441
X4.3433Y-2.9031
X4.3449Y-2.9362
X4.3457Y-2.8681
X4.3768Y-2.9035
X4.3783Y-2.9366
X4.3791Y-2.8685
X4.4122Y-2.8677
X4.4122Y-2.9016
X4.4122Y-2.9354
X4.4122Y-2.9689
X4.4508Y-2.8673
X4.4508Y-2.9012
X4.4508Y-2.935
X4.4508Y-2.9685
X4.4843Y-2.8677
X4.4843Y-2.9016
X4.4843Y-2.9354
X4.4843Y-2.9689
T2
X3.9264Y-2.8362
T3
X3.9748Y-3.2969
X4.024Y-3.2969
X4.0732Y-3.2969
X4.1224Y-3.2969
X4.1717Y-3.2969
X4.2209Y-3.2969
X4.2701Y-3.2969
X4.3193Y-3.2969
M30
